<?xml version="1.0" standalone="no"?><!DOCTYPE svg PUBLIC "-//W3C//DTD SVG 1.1//EN" "http://www.w3.org/Graphics/SVG/1.1/DTD/svg11.dtd"><svg t="1546438779991" class="icon" style="" viewBox="0 0 1024 1024" version="1.1" xmlns="http://www.w3.org/2000/svg" p-id="5929" xmlns:xlink="http://www.w3.org/1999/xlink" width="200" height="200"><defs><style type="text/css"></style></defs><path d="M732.911924 82.566319c-86.907175 0-167.726714 39.860767-220.902714 105.618291-53.160651-65.771851-133.951537-105.618292-220.908854-105.618291-156.666843 0-284.123468 127.43002-284.123468 284.095839 0 93.458368 45.657785 159.033745 82.348355 211.701163C195.979118 731.381061 464.132902 921.792381 475.495671 929.824295a63.175729 63.175729 0 0 0 36.48591 11.610409 63.056002 63.056002 0 0 0 36.492049-11.610409c11.384259-8.031914 279.546229-198.443235 386.177591-351.460974 36.719223-52.667418 82.370868-118.242795 82.370868-211.701163 0.001023-156.666843-127.457649-284.095839-284.110165-284.095839zM882.773794 542.208962c-101.518935 145.689859-370.792213 335.989639-370.792213 335.989639s-269.231323-190.29978-370.777888-335.989639c-37.450885-53.780773-70.992749-104.913235-70.992748-175.546804 0-121.963529 98.89109-220.888388 220.888387-220.888388 90.161282 0 167.565032 54.106184 201.903026 131.543702v-0.380669h0.098238c2.550074 8.07387 10.010985 13.964008 18.880985 13.964008 8.919119 0 16.371843-5.890139 18.908614-13.964008h0.281408c34.407579-77.213415 111.704905-131.163033 201.740321-131.163033 121.964552 0 220.874062 98.924859 220.874062 220.888388 0 70.632546-33.533677 121.766031-71.012192 175.546804z" p-id="5930" fill="#2c2c2c"></path><path d="M586.066755 324.927721a20.834473 20.834473 0 0 0 9.609849 2.33825 21.113835 21.113835 0 0 0 18.767398-11.454867 84.124811 84.124811 0 0 0 2.198057-4.579286c21.106671-47.398425 68.138754-78.002382 119.849383-78.002382 35.562889 0 68.885766 14.047919 93.810385 39.549682 8.129128 8.327649 21.501667 8.482168 29.800663 0.35304 8.340952-8.158804 8.496494-21.487341 0.35304-29.81499-32.914578-33.703546-76.959635-52.25912-123.964088-52.259119-68.336251 0-130.487652 40.43791-158.357341 102.96998a40.827789 40.827789 0 0 1-1.198289 2.550074c-5.325275 10.328209-1.239221 23.051973 9.130943 28.349618z" p-id="5931" fill="#2c2c2c"></path><path d="M888.818451 343.357429c-11.652364 0-21.092345 9.454307-21.092345 21.092345 0 42.467122-20.9235 75.579198-55.41499 125.048791-67.069401 96.248919-223.763873 220.888388-300.327489 278.883127-76.544174-58.009066-233.238646-182.648535-300.285534-278.883127-34.492513-49.469593-55.422153-82.553016-55.422153-125.048791 0-72.351697 58.874781-131.219315 131.233641-131.219315 51.823192 0 98.904393 30.702195 119.926131 78.129272a82.658416 82.658416 0 0 0 2.353599 4.903674c5.395883 10.328209 18.141136 14.343654 28.440693 8.947771 10.320022-5.369277 14.329328-18.12067 8.939585-28.419203a39.434049 39.434049 0 0 1-1.155311-2.43751c-27.81443-62.741848-90.042579-103.293345-158.50572-103.293345-95.601167 0-173.377399 77.790558-173.377399 173.390703 0 54.570764 26.087093 96.263245 62.982324 149.156813 71.787856 103.053891 232.709597 230.962817 322.236431 298.045521a21.216165 21.216165 0 0 0 12.63269 4.19964c4.452396 0 8.903769-1.410113 12.652132-4.19964 89.526834-67.068378 250.434249-194.949674 322.266107-298.045521 36.888068-52.922221 62.982324-94.599352 62.982324-149.156813 0-11.640085-9.441004-21.094392-21.064716-21.094392z" p-id="5932" fill="#2c2c2c"></path></svg>